<?xml version="1.0" encoding="utf-8"?>
<!-- Generator: Adobe Illustrator 23.0.1, SVG Export Plug-In . SVG Version: 6.00 Build 0)  -->
<svg version="1.1" id="Layer_1" xmlns="http://www.w3.org/2000/svg"
	xmlns:xlink="http://www.w3.org/1999/xlink" x="0px" y="0px"
	viewBox="0 0 512 512" style="enable-background:new 0 0 512 512;" xml:space="preserve">
<style type="text/css">
	.st0{fill:#19B870;}
	.st1{fill:url(#SVGID_1_);}
	.st2{opacity:0.1;enable-background:new    ;}
	.st3{fill:#80D8B0;}
	.st4{opacity:0.2;fill:#FFFFFF;enable-background:new    ;}
	.st5{fill:#FFFFFF;}
	.st6{fill:url(#SVGID_2_);}
</style>
<g>
	<path class="st0" d="M406,156L306,56H139.3C120.9,56,106,70.9,106,89.3v333.3c0,18.4,14.9,33.3,33.3,33.3h233.3
		c18.4,0,33.3-14.9,33.3-33.3V156z"/>
	
		<linearGradient id="SVGID_1_" gradientUnits="userSpaceOnUse" x1="336.1493" y1="-38.4716" x2="426.106" y2="-128.4282" gradientTransform="matrix(1 0 0 -1 0 87.8898)">
		<stop  offset="0" style="stop-color:#000000;stop-opacity:0.1"/>
		<stop  offset="1" style="stop-color:#000000;stop-opacity:0"/>
	</linearGradient>
	<path class="st1" d="M339.3,156c-9.1,0-17.3-3.7-23.3-9.5l90,90V156H339.3z"/>
	<path class="st2" d="M372.7,451.8H139.3c-18.4,0-33.3-14.9-33.3-33.3v4.2c0,18.4,14.9,33.3,33.3,33.3h233.3
		c18.4,0,33.3-14.9,33.3-33.3v-4.2C406,436.9,391.1,451.8,372.7,451.8z"/>
	<path class="st3" d="M306,56v66.7c0,18.4,14.9,33.3,33.3,33.3H406L306,56z"/>
	<path class="st2" d="M339.3,151.8c-18.4,0-33.3-14.9-33.3-33.3v4.2c0,18.4,14.9,33.3,33.3,33.3H406l-4.2-4.2H339.3z"/>
	<path class="st4" d="M306,56H139.3C120.9,56,106,70.9,106,89.3v4.2c0-18.4,14.9-33.3,33.3-33.3H306"/>
	<path class="st5" d="M172.7,206v166.7h166.7V206H172.7z M322.7,256h-58.3v-33.3h58.3V256z M264.3,272.7h58.3V306h-58.3V272.7z
		 M247.7,306h-58.3v-33.3h58.3V306z M247.7,222.7V256h-58.3v-33.3H247.7z M189.3,322.7h58.3V356h-58.3V322.7z M264.3,356v-33.3h58.3
		V356H264.3z"/>
	
		<linearGradient id="SVGID_2_" gradientUnits="userSpaceOnUse" x1="59.5011" y1="-93.7522" x2="439.2686" y2="-270.8407" gradientTransform="matrix(1 0 0 -1 0 87.8898)">
		<stop  offset="0" style="stop-color:#FFFFFF;stop-opacity:0.2"/>
		<stop  offset="1" style="stop-color:#FFFFFF;stop-opacity:0"/>
	</linearGradient>
	<path class="st6" d="M406,156L306,56H139.3C120.9,56,106,70.9,106,89.3v333.3c0,18.4,14.9,33.3,33.3,33.3h233.3
		c18.4,0,33.3-14.9,33.3-33.3V156z"/>
</g>
</svg>