<svg class="icon" viewBox="0 0 1024 1024" xmlns="http://www.w3.org/2000/svg" width="16" height="16"><path d="M849.17 0C946.577 0 1024 77.424 1024 174.83v674.34c0 97.406-77.424 174.83-174.83 174.83H174.83C77.423 1024 0 946.576 0 849.17V174.83C0 77.423 77.424 0 174.83 0h674.34zM691.825 312.195c-7.492-7.493-17.483-7.493-27.473-7.493l-64.936 9.99c-4.995 0-9.99 2.498-14.986 4.996-4.995 2.497-7.492 4.995-9.99 9.99s-4.995 7.493-4.995 12.488-2.498 9.99 0 14.985l52.449 342.166c2.497 9.99 7.492 19.98 14.985 24.976 7.493 4.995 17.483 7.492 27.473 7.492l62.44-9.99c9.99-2.497 19.98-7.493 24.975-14.985 4.995-7.493 7.493-17.483 7.493-27.473L704.312 337.17c0-12.488-4.995-19.98-12.488-24.976zm-197.307-9.99h-59.941c-9.99 0-19.98 2.497-24.976 9.99-4.995 7.493-7.493 17.483-7.493 27.473v354.654c0 9.99 2.498 19.98 9.99 27.473 7.493 7.493 17.483 9.99 27.474 9.99h54.946c9.99 0 19.98-2.497 27.473-9.99 7.493-7.493 9.99-17.483 9.99-27.473V339.668c0-9.99-2.497-19.98-9.99-27.473-7.492-7.493-17.483-9.99-27.473-9.99zm-167.337 0h-54.946c-9.99 0-19.98 2.497-27.473 9.99-7.493 7.493-12.488 17.483-12.488 27.473v354.654c0 9.99 4.995 19.98 12.488 27.473 7.493 7.493 17.483 9.99 27.473 9.99h54.946c9.99 0 19.981-2.497 27.474-9.99 7.492-7.493 12.487-17.483 12.487-27.473V339.668c0-9.99-4.995-19.98-12.487-27.473-7.493-7.493-14.986-9.99-27.474-9.99zm0 264.741c4.996 0 7.493 2.498 9.99 4.995 2.498 2.498 2.498 7.493 2.498 12.488s0 7.493-2.497 12.488c-2.498 2.498-4.995 4.995-9.99 4.995h-52.45c-4.994 0-7.492-2.497-9.99-4.995-2.497-2.497-2.497-7.493-2.497-12.488s0-9.99 2.497-12.488c2.498-2.497 4.996-4.995 9.99-4.995h52.45zm167.337-32.468c2.498 0 7.493 2.498 9.99 4.995 2.498 2.498 2.498 7.493 2.498 12.488s0 7.493-2.498 12.488c-2.497 2.497-4.995 4.995-9.99 4.995h-54.946c-2.498 0-7.493-2.498-9.99-4.995-2.498-2.498-2.498-7.493-2.498-12.488s0-9.99 2.497-12.488c2.498-2.497 4.996-4.995 9.99-4.995h54.947zM327.18 502.01c4.996 0 7.493 2.497 9.99 4.995 2.498 2.497 2.498 7.493 2.498 12.488s0 9.99-2.497 12.487c-2.498 2.498-4.995 4.996-9.99 4.996h-52.45c-4.994 0-7.492-2.498-9.99-4.996-2.497-2.497-2.497-7.492-2.497-12.487s0-9.99 2.497-12.488c2.498-2.498 4.996-4.995 9.99-4.995h52.45zm167.337-34.966c2.498 0 7.493 2.497 9.99 4.995 2.498 2.498 2.498 7.493 2.498 12.488s0 9.99-2.498 12.488c-2.497 2.497-4.995 4.995-9.99 4.995h-54.946c-2.498 0-7.493-2.498-9.99-4.995-2.498-2.498-2.498-7.493-2.498-12.488s0-9.99 2.497-12.488c2.498-2.498 4.996-4.995 9.99-4.995h54.947zm-169.834-32.468c4.995 0 7.493 2.497 9.99 4.995 2.498 2.497 2.498 7.492 2.498 12.488s0 7.492-2.498 12.487c-2.497 2.498-4.995 4.995-9.99 4.995h-49.951c-4.995 0-7.493-2.497-9.99-4.995-2.498-2.497-2.498-7.492-2.498-12.487s0-9.99 2.497-12.488c2.498-2.498 4.996-4.995 9.99-4.995h49.952z" fill="#3fc387"/></svg>